<?xml version="1.0" standalone="no"?>
<!DOCTYPE svg PUBLIC "-//W3C//DTD SVG 20010904//EN"
 "http://www.w3.org/TR/2001/REC-SVG-20010904/DTD/svg10.dtd">
<svg version="1.0" xmlns="http://www.w3.org/2000/svg"
 width="512.000000pt" height="512.000000pt" viewBox="0 0 512.000000 512.000000"
 preserveAspectRatio="xMidYMid meet">

<g transform="translate(0.000000,512.000000) scale(0.100000,-0.100000)"
fill="#000000" stroke="none">
<path d="M4563 5102 c-28 -10 -71 -34 -95 -53 -260 -211 -1098 -896 -1113
-910 -19 -19 -16 -22 295 -334 173 -173 318 -315 322 -315 6 0 795 961 926
1128 100 127 93 290 -17 405 -81 86 -210 118 -318 79z"/>
<path d="M2965 3822 c-71 -59 -147 -128 -168 -152 -37 -43 -104 -166 -96 -174
2 -3 42 -18 88 -35 128 -47 215 -103 317 -205 103 -103 162 -195 204 -317 16
-44 31 -83 34 -86 3 -3 35 8 71 25 81 38 149 102 273 255 l96 118 -340 340
c-186 186 -341 339 -344 339 -3 0 -63 -49 -135 -108z"/>
<path d="M450 3844 c-119 -32 -208 -107 -264 -224 l-31 -65 -3 -1042 -2 -1043
2090 0 2090 0 0 987 c0 831 -2 985 -14 973 -7 -8 -132 -161 -278 -340 -146
-179 -287 -344 -314 -366 -99 -83 -220 -148 -326 -174 l-45 -12 -12 -66 c-38
-206 -185 -426 -361 -540 -146 -95 -296 -131 -567 -137 -208 -5 -270 -18 -356
-75 -74 -50 -123 -64 -213 -64 -218 2 -385 219 -329 429 9 33 34 90 56 127 59
97 69 146 74 358 5 261 35 390 127 544 107 182 335 337 550 377 l66 12 16 56
c20 72 78 193 122 253 l34 48 -1028 -1 c-871 0 -1035 -3 -1082 -15z"/>
<path d="M2345 3191 c-178 -51 -316 -185 -370 -361 -12 -39 -19 -115 -25 -265
-5 -138 -14 -236 -25 -285 -19 -82 -62 -186 -95 -227 -52 -66 7 -125 73 -73
41 33 145 76 227 95 49 11 147 20 285 25 227 9 274 18 378 73 112 59 220 204
252 338 72 305 -109 607 -410 684 -78 20 -214 18 -290 -4z"/>
<path d="M150 1081 c0 -160 60 -287 173 -365 105 -72 83 -70 760 -74 l607 -3
0 -169 0 -170 -142 0 c-116 0 -150 -3 -178 -18 -107 -53 -107 -211 0 -264 32
-17 95 -18 868 -18 922 0 877 -3 925 64 31 43 31 129 0 172 -39 54 -74 64
-232 64 l-141 0 0 170 0 170 573 0 c371 0 594 4 632 11 161 30 290 156 324
317 6 29 11 87 11 127 l0 75 -2090 0 -2090 0 0 -89z"/>
</g>
</svg>
