<?xml version="1.0" standalone="no"?>
<!DOCTYPE svg PUBLIC "-//W3C//DTD SVG 20010904//EN"
 "http://www.w3.org/TR/2001/REC-SVG-20010904/DTD/svg10.dtd">
<svg version="1.0" xmlns="http://www.w3.org/2000/svg"
 width="512.000000pt" height="512.000000pt" viewBox="0 0 512.000000 512.000000"
 preserveAspectRatio="xMidYMid meet">

<g transform="translate(0.000000,512.000000) scale(0.100000,-0.100000)"
fill="#000000" stroke="none">
<path d="M2375 4469 c-616 -83 -1108 -548 -1232 -1166 -26 -132 -24 -415 5
-545 65 -297 190 -527 396 -734 207 -206 437 -331 734 -396 140 -31 424 -31
564 0 207 45 408 133 553 242 44 32 90 67 103 76 23 17 24 17 193 -152 l169
-169 -52 -52 -53 -53 440 -440 440 -440 160 160 160 160 -440 440 -440 440
-50 -50 -50 -50 -169 169 c-169 169 -169 170 -152 193 9 13 44 59 76 103 109
145 196 346 242 553 31 139 31 423 0 564 -65 296 -189 526 -397 733 -203 204
-446 337 -720 395 -116 24 -369 34 -480 19z m374 -165 c307 -45 590 -204 796
-449 357 -424 391 -1060 82 -1520 -56 -83 -77 -108 -170 -203 -275 -280 -684
-415 -1077 -358 -868 128 -1355 1064 -960 1846 146 288 410 518 720 628 194
68 399 87 609 56z"/>
<path d="M2466 3910 c-63 -16 -153 -70 -197 -117 -22 -24 -55 -74 -72 -111
-29 -61 -32 -76 -32 -163 0 -90 2 -99 37 -171 45 -91 103 -147 196 -191 61
-29 76 -32 162 -32 86 0 101 3 162 32 93 44 151 100 196 191 35 72 37 81 37
172 0 91 -2 100 -37 172 -68 136 -188 217 -336 224 -42 2 -94 -1 -116 -6z"/>
<path d="M2203 3025 c-175 -47 -317 -195 -353 -368 -6 -29 -9 -120 -8 -202 l3
-150 55 -33 c136 -81 405 -120 755 -109 281 9 453 42 565 109 l55 33 3 150 c1
82 -2 173 -8 202 -37 175 -179 322 -357 368 -80 21 -633 21 -710 0z"/>
<path d="M706 3910 c-63 -16 -153 -70 -197 -117 -22 -24 -55 -74 -72 -111 -29
-61 -32 -76 -32 -163 0 -90 2 -99 37 -171 45 -91 103 -147 196 -191 61 -29 76
-32 162 -32 63 1 107 6 130 16 l35 16 12 99 c16 128 51 264 102 389 23 54 41
104 41 111 0 22 -91 96 -156 126 -71 33 -186 46 -258 28z"/>
<path d="M4226 3910 c-59 -15 -149 -67 -192 -111 l-38 -39 19 -48 c77 -194
135 -418 135 -519 0 -49 45 -67 170 -68 86 0 101 3 162 32 93 44 151 100 196
191 35 72 37 81 37 172 0 91 -2 100 -37 172 -68 136 -188 217 -336 224 -42 2
-94 -1 -116 -6z"/>
<path d="M443 3025 c-175 -47 -317 -195 -353 -368 -6 -29 -9 -120 -8 -202 l3
-150 55 -33 c90 -54 221 -85 430 -103 187 -16 602 -1 626 23 3 3 -7 26 -22 50
-108 170 -195 458 -210 698 l-7 100 -231 -1 c-166 0 -246 -4 -283 -14z"/>
<path d="M4156 2940 c-15 -235 -92 -495 -201 -681 -27 -46 -33 -64 -24 -70 47
-29 602 -32 764 -5 134 22 219 49 285 88 l55 33 3 150 c1 82 -2 173 -8 202
-28 131 -132 268 -248 327 -96 49 -147 56 -393 56 l-226 0 -7 -100z"/>
</g>
</svg>
