<?xml version="1.0" standalone="no"?>
<!DOCTYPE svg PUBLIC "-//W3C//DTD SVG 20010904//EN"
 "http://www.w3.org/TR/2001/REC-SVG-20010904/DTD/svg10.dtd">
<svg version="1.0" xmlns="http://www.w3.org/2000/svg"
 width="512.000000pt" height="512.000000pt" viewBox="0 0 512.000000 512.000000"
 preserveAspectRatio="xMidYMid meet">

<g transform="translate(0.000000,512.000000) scale(0.100000,-0.100000)"
fill="#000000" stroke="none">
<path d="M1402 5100 c-95 -25 -171 -69 -242 -140 -72 -72 -115 -147 -140 -246
-19 -72 -20 -111 -20 -558 0 -413 2 -485 15 -503 14 -21 22 -22 168 -21 290 2
523 -66 756 -222 172 -116 335 -296 428 -476 24 -45 49 -86 56 -92 23 -19 127
-41 238 -51 121 -10 180 -34 241 -98 59 -61 83 -124 82 -218 0 -66 -5 -89 -26
-130 -60 -115 -231 -283 -409 -401 l-96 -63 -66 -133 c-111 -224 -255 -389
-456 -523 -229 -152 -450 -217 -741 -217 -127 0 -158 -3 -172 -15 -16 -15 -18
-40 -18 -263 0 -213 3 -257 20 -324 50 -197 203 -344 403 -391 59 -14 202 -15
1164 -13 l1098 3 65 23 c82 29 198 106 206 137 11 43 -1 59 -69 97 -237 129
-395 319 -468 558 -20 68 -30 83 -104 161 -96 101 -172 212 -198 289 -20 59
-18 125 8 186 20 48 81 110 133 136 42 20 60 22 163 20 l115 -2 53 62 c108
131 256 230 421 283 47 15 91 35 98 43 9 12 12 78 12 252 0 197 -3 239 -16
258 -8 12 -23 22 -33 22 -71 0 -282 75 -382 136 -58 35 -62 36 -177 39 -135 4
-303 35 -380 70 -101 46 -155 133 -156 250 -1 104 32 165 127 238 40 31 79 67
86 80 9 16 13 78 15 193 2 200 19 281 95 439 134 280 389 487 681 550 146 32
153 41 127 162 -23 106 -70 195 -142 267 -75 77 -150 120 -251 146 -75 19
-112 20 -1158 19 -1033 0 -1084 -1 -1154 -19z m1796 -202 c-63 -121 -115 -178
-183 -201 -71 -25 -837 -25 -908 -1 -68 23 -124 84 -185 202 l-53 102 691 0
691 0 -53 -102z m-178 -4278 c11 -11 20 -29 20 -40 0 -11 -9 -29 -20 -40 -19
-19 -33 -20 -460 -20 -427 0 -441 1 -460 20 -11 11 -20 29 -20 40 0 11 9 29
20 40 19 19 33 20 460 20 427 0 441 -1 460 -20z"/>
<path d="M4053 4415 c-192 -35 -379 -135 -499 -268 -102 -112 -189 -283 -218
-429 -17 -82 -21 -264 -7 -335 11 -58 -15 -96 -147 -211 -80 -71 -100 -112
-87 -178 20 -108 167 -165 435 -168 l135 -1 59 -39 c127 -84 284 -134 451
-143 244 -13 461 67 638 236 179 171 277 376 293 615 26 375 -223 752 -578
878 -156 55 -324 70 -475 43z m60 -549 c20 -8 53 -26 72 -40 l35 -27 35 27
c95 72 209 71 295 -4 74 -63 100 -148 80 -262 -24 -143 -126 -278 -290 -386
-62 -40 -83 -49 -120 -49 -37 0 -58 9 -120 49 -165 109 -266 244 -291 389 -19
115 6 197 80 258 67 57 146 72 224 45z"/>
<path d="M1086 3509 c-462 -49 -882 -393 -1019 -834 -46 -148 -52 -192 -51
-370 1 -150 4 -182 27 -268 59 -221 149 -377 317 -548 185 -188 364 -290 613
-346 90 -20 355 -23 442 -5 421 90 753 364 904 748 32 79 33 81 99 118 198
113 415 322 443 427 21 80 -9 159 -81 207 -39 26 -41 27 -180 41 -58 5 -143
22 -188 36 l-82 26 -46 92 c-26 50 -69 125 -96 165 -188 278 -513 473 -853
512 -101 11 -136 11 -249 -1z m342 -454 c43 -36 82 -119 82 -174 0 -26 -11
-88 -25 -140 -13 -52 -22 -98 -20 -101 3 -4 27 -10 55 -13 66 -8 162 -60 207
-111 20 -23 47 -66 62 -96 24 -52 26 -64 26 -205 0 -141 -2 -153 -26 -205 -37
-78 -87 -131 -161 -171 l-63 -34 -193 -3 -192 -4 -70 33 -70 32 0 359 0 359
39 47 c48 57 94 140 161 292 28 63 61 125 72 138 29 30 78 29 116 -3z m-510
-838 c2 -381 1 -408 -15 -415 -10 -4 -67 -7 -128 -7 -122 0 -145 8 -175 58
-19 30 -20 53 -20 360 0 433 -7 419 205 415 l130 -3 3 -408z"/>
<path d="M4130 1865 c-193 -43 -379 -164 -482 -312 -16 -24 -38 -48 -50 -54
-12 -7 -64 -10 -132 -9 -153 4 -151 4 -190 -30 -41 -36 -61 -88 -52 -136 11
-54 118 -205 203 -284 74 -69 78 -75 95 -143 74 -295 328 -539 628 -603 278
-59 599 60 773 289 119 155 169 300 169 492 0 143 -21 238 -82 360 -102 202
-297 362 -515 420 -86 23 -284 28 -365 10z m160 -405 c34 -18 40 -43 25 -101
-22 -82 -24 -79 60 -79 52 0 77 4 80 13 2 6 13 45 25 85 24 83 49 105 95 84
33 -15 40 -49 21 -113 -9 -29 -16 -56 -16 -61 0 -4 23 -8 50 -8 55 0 90 -23
90 -60 0 -41 -34 -60 -108 -60 l-68 0 -21 -80 -21 -80 69 0 c75 0 109 -19 109
-60 0 -11 -9 -29 -20 -40 -17 -17 -33 -20 -104 -20 l-85 0 -15 -52 c-8 -29
-18 -66 -22 -81 -14 -57 -78 -71 -109 -23 -13 19 -12 29 0 76 23 84 25 81 -62
78 l-77 -3 -22 -80 c-29 -103 -67 -132 -114 -85 -24 24 -25 39 -5 104 8 27 15
53 15 58 0 4 -22 8 -50 8 -55 0 -90 23 -90 60 0 41 34 60 108 60 l68 0 21 80
21 80 -69 0 c-75 0 -109 19 -109 60 0 11 9 29 20 40 17 17 33 20 104 20 l85 0
15 53 c8 28 18 64 22 80 6 25 37 57 57 57 5 0 17 -5 27 -10z"/>
<path d="M4246 1098 c-10 -35 -20 -71 -22 -80 -5 -16 3 -18 74 -18 l79 0 17
63 c10 34 20 70 22 80 5 15 -3 17 -74 17 l-79 0 -17 -62z"/>
</g>
</svg>
